<?xml version="1.0" encoding="UTF-8"?>
<svg version="1.1" xmlns="http://www.w3.org/2000/svg" width="96" height="96">
<path d="M0 0 C31.68 0 63.36 0 96 0 C96 31.68 96 63.36 96 96 C64.32 96 32.64 96 0 96 C0 64.32 0 32.64 0 0 Z " fill="#D81515" transform="translate(0,0)"/>
<path d="M0 0 C27.72 0 55.44 0 84 0 C84 11.88 84 23.76 84 36 C56.28 36 28.56 36 0 36 C0 24.12 0 12.24 0 0 Z " fill="#D81818" transform="translate(6,32)"/>
<path d="M0 0 C27.72 0 55.44 0 84 0 C84 11.88 84 23.76 84 36 C56.28 36 28.56 36 0 36 C0 24.12 0 12.24 0 0 Z M2 2 C2 9.92 2 17.84 2 26 C28.4 26 54.8 26 82 26 C82 18.08 82 10.16 82 2 C55.6 2 29.2 2 2 2 Z " fill="#FDF5F5" transform="translate(6,32)"/>
<path d="M0 0 C18.48 0 36.96 0 56 0 C56 7.92 56 15.84 56 24 C51.85315985 24.13848446 47.71445766 24.25762942 43.56713867 24.32958984 C42.15963444 24.35960197 40.75231473 24.40042758 39.34545898 24.45263672 C26.15024985 24.92974105 26.15024985 24.92974105 21.53515625 21.0390625 C19 18 19 18 19 17 C33.78132118 15.66742597 33.78132118 15.66742597 40 17 C40 16.01 40 15.02 40 14 C38.68 13.34 37.36 12.68 36 12 C36.66 11.01 37.32 10.02 38 9 C38.99 9.66 39.98 10.32 41 11 C41 9.68 41 8.36 41 7 C42.65 7 44.3 7 46 7 C46 6.34 46 5.68 46 5 C43.69 5 41.38 5 39 5 C38.67 5.66 38.34 6.32 38 7 C37.505 6.505 37.505 6.505 37 6 C35.31816052 5.76712992 33.6287584 5.58735834 31.9375 5.4375 C31.01839844 5.35371094 30.09929688 5.26992188 29.15234375 5.18359375 C28.08693359 5.09271484 28.08693359 5.09271484 27 5 C26.67 5.66 26.34 6.32 26 7 C26 6.34 26 5.68 26 5 C25.01 5 24.02 5 23 5 C22.67 6.32 22.34 7.64 22 9 C22 8.01 22 7.02 22 6 C18.9254644 6.7763932 18.9254644 6.7763932 17 9 C17 7.68 17 6.36 17 5 C16.34 5 15.68 5 15 5 C15 6.32 15 7.64 15 9 C14.01 9 13.02 9 12 9 C12 7.68 12 6.36 12 5 C10.68 5 9.36 5 8 5 C8 6.98 8 8.96 8 11 C8.66 11.33 9.32 11.66 10 12 C9.34 12 8.68 12 8 12 C7.67 12.66 7.34 13.32 7 14 C6.34 12.68 5.68 11.36 5 10 C5.66 10 6.32 10 7 10 C7 8.35 7 6.7 7 5 C6.401875 4.731875 5.80375 4.46375 5.1875 4.1875 C3 3 3 3 0 0 Z " fill="#D91D1D" transform="translate(32,34)"/>
<path d="M0 0 C1.32 0 2.64 0 4 0 C4 1.32 4 2.64 4 4 C4.99 4 5.98 4 7 4 C7 2.68 7 1.36 7 0 C7.66 0 8.32 0 9 0 C9.33 0.66 9.66 1.32 10 2 C10.67675781 1.67257813 11.35351562 1.34515625 12.05078125 1.0078125 C15.58561454 -0.20011729 18.4599271 -0.19570212 22.1875 -0.125 C24.03408203 -0.09792969 24.03408203 -0.09792969 25.91796875 -0.0703125 C26.93503906 -0.04710937 27.95210937 -0.02390625 29 0 C29.66 0 30.32 0 31 0 C33.33333333 0 35.66666667 0 38 0 C38 0.66 38 1.32 38 2 C37.34 2 36.68 2 36 2 C35.67 2.99 35.34 3.98 35 5 C35 4.01 35 3.02 35 2 C34.34 2 33.68 2 33 2 C33 3.32 33 4.64 33 6 C31.68 6 30.36 6 29 6 C29.99 6.66 30.98 7.32 32 8 C32 9.32 32 10.64 32 12 C20.66666667 12 9.33333333 12 -2 12 C-2.33 10.35 -2.66 8.7 -3 7 C-2.01 7 -1.02 7 0 7 C0 4.69 0 2.38 0 0 Z " fill="#EB8A8A" transform="translate(40,39)"/>
<path d="M0 0 C3.14851905 1.31233298 4.51292764 2.51292764 7 5 C7.4375 7.8125 7.4375 7.8125 7 10 C-7.45240296 11.79852126 -7.45240296 11.79852126 -12 9 C-12 9.66 -12 10.32 -12 11 C-12.66 11 -13.32 11 -14 11 C-14.36705027 3.53664446 -14.36705027 3.53664446 -12.81640625 1.26953125 C-9.063634 -1.35337409 -4.34777089 -0.64702571 0 0 Z " fill="#DA2222" transform="translate(32,34)"/>
<path d="M0 0 C1.32 0 2.64 0 4 0 C4 1.32 4 2.64 4 4 C4.99 4 5.98 4 7 4 C7 2.68 7 1.36 7 0 C7.66 0 8.32 0 9 0 C9.33 0.66 9.66 1.32 10 2 C10.70125 1.649375 11.4025 1.29875 12.125 0.9375 C15.50268586 -0.1639193 17.58080593 0.20483859 21 1 C21 2.32 21 3.64 21 5 C19.95199219 5.09087891 19.95199219 5.09087891 18.8828125 5.18359375 C17.97273438 5.26738281 17.06265625 5.35117187 16.125 5.4375 C15.22007813 5.51871094 14.31515625 5.59992187 13.3828125 5.68359375 C10.98889139 5.86989285 10.98889139 5.86989285 9 7 C9.33 8.65 9.66 10.3 10 12 C6 12 2 12 -2 12 C-2.33 10.35 -2.66 8.7 -3 7 C-2.01 7 -1.02 7 0 7 C0 4.69 0 2.38 0 0 Z " fill="#E87B7B" transform="translate(40,39)"/>
<path d="M0 0 C2.64 0 5.28 0 8 0 C8.33 1.65 8.66 3.3 9 5 C10.32 4.01 11.64 3.02 13 2 C13.625 4.875 13.625 4.875 14 8 C12 10 12 10 8.875 10.125 C7.92625 10.08375 6.9775 10.0425 6 10 C5.34 8.35 4.68 6.7 4 5 C2.68 5 1.36 5 0 5 C0 3.35 0 1.7 0 0 Z " fill="#DA2424" transform="translate(29,46)"/>
<path d="M0 0 C0.87269531 -0.01417969 1.74539062 -0.02835938 2.64453125 -0.04296875 C5.29669085 0.19739594 6.91214999 0.84562691 9.1875 2.1875 C9.1875 3.5075 9.1875 4.8275 9.1875 6.1875 C4.2375 6.1875 -0.7125 6.1875 -5.8125 6.1875 C-5.8125 -0.22102413 -5.74204652 0.04203548 0 0 Z " fill="#E87979" transform="translate(62.8125,44.8125)"/>
<path d="M0 0 C2.31 0.33 4.62 0.66 7 1 C7 1.99 7 2.98 7 4 C7.99 3.67 8.98 3.34 10 3 C10.33 2.34 10.66 1.68 11 1 C11.99 1 12.98 1 14 1 C14.33 2.65 14.66 4.3 15 6 C13.58376784 6.05447047 12.16691809 6.09300508 10.75 6.125 C9.96109375 6.14820313 9.1721875 6.17140625 8.359375 6.1953125 C5.79268059 5.9828378 4.2083933 5.28654105 2 4 C2 4.66 2 5.32 2 6 C1.34 6 0.68 6 0 6 C0 4.02 0 2.04 0 0 Z " fill="#F5C4C4" transform="translate(18,39)"/>
<path d="M0 0 C-0.33 2.31 -0.66 4.62 -1 7 C-3.31 7 -5.62 7 -8 7 C-8.33 5.35 -8.66 3.7 -9 2 C-10.32 1.67 -11.64 1.34 -13 1 C-8.60563789 0.14256349 -4.47427924 -0.08948558 0 0 Z " fill="#DB2B2B" transform="translate(58,44)"/>
<path d="M0 0 C0 1.32 0 2.64 0 4 C-1.258125 4.185625 -2.51625 4.37125 -3.8125 4.5625 C-4.87404297 4.71912109 -4.87404297 4.71912109 -5.95703125 4.87890625 C-8 5 -8 5 -11 4 C-10.67 2.68 -10.34 1.36 -10 0 C-6.42355152 -1.2380014 -3.66305234 -0.74926071 0 0 Z " fill="#F1B1B1" transform="translate(61,40)"/>
<path d="M0 0 C0 0.66 0 1.32 0 2 C-0.66 2 -1.32 2 -2 2 C-2.33 2.99 -2.66 3.98 -3 5 C-3 4.01 -3 3.02 -3 2 C-3.66 2 -4.32 2 -5 2 C-5 3.32 -5 4.64 -5 6 C-6.65 5.67 -8.3 5.34 -10 5 C-10 3.68 -10 2.36 -10 1 C-6.52674819 -0.1577506 -3.63932552 -0.06866652 0 0 Z " fill="#F4C0C0" transform="translate(78,39)"/>
<path d="M0 0 C2.33333333 0 4.66666667 0 7 0 C7 1.65 7 3.3 7 5 C5 5 3 5 1 5 C0.67 3.35 0.34 1.7 0 0 Z " fill="#F6CACA" transform="translate(37,46)"/>
<path d="M0 0 C2.97 0.495 2.97 0.495 6 1 C5.67 2.32 5.34 3.64 5 5 C4.01 4.67 3.02 4.34 2 4 C2 4.66 2 5.32 2 6 C1.34 6 0.68 6 0 6 C0 4.02 0 2.04 0 0 Z " fill="#F1B0B0" transform="translate(18,39)"/>
<path d="M0 0 C1.32 0 2.64 0 4 0 C4 1.98 4 3.96 4 6 C2.68 6 1.36 6 0 6 C0 4.02 0 2.04 0 0 Z " fill="#F2B6B6" transform="translate(40,39)"/>
<path d="M0 0 C1.98 0.495 1.98 0.495 4 1 C4 2.32 4 3.64 4 5 C2.35 5 0.7 5 -1 5 C-0.67 3.35 -0.34 1.7 0 0 Z " fill="#F6CACA" transform="translate(52,46)"/>
<path d="M0 0 C1.98 0.495 1.98 0.495 4 1 C3.67 2.65 3.34 4.3 3 6 C1.68 5.34 0.36 4.68 -1 4 C-0.67 2.68 -0.34 1.36 0 0 Z " fill="#F7D4D4" transform="translate(80,39)"/>
<path d="M0 0 C1.66666667 0 3.33333333 0 5 0 C5 1.65 5 3.3 5 5 C3.35 5 1.7 5 0 5 C0 3.35 0 1.7 0 0 Z " fill="#FAE1E1" transform="translate(62,46)"/>
<path d="M0 0 C1.32 0 2.64 0 4 0 C4 1.65 4 3.3 4 5 C2.68 5 1.36 5 0 5 C0 3.35 0 1.7 0 0 Z " fill="#F6C9C9" transform="translate(24,46)"/>
<path d="M0 0 C0.99 0 1.98 0 3 0 C3.33 1.65 3.66 3.3 4 5 C2.35 5 0.7 5 -1 5 C-0.67 3.35 -0.34 1.7 0 0 Z " fill="#F7D1D1" transform="translate(46,46)"/>
<path d="M0 0 C1.65 0 3.3 0 5 0 C5 1.32 5 2.64 5 4 C3.35 4 1.7 4 0 4 C0 2.68 0 1.36 0 0 Z " fill="#FAE3E3" transform="translate(56,40)"/>
<path d="M0 0 C0 1.65 0 3.3 0 5 C-1.65 5 -3.3 5 -5 5 C-5 3.68 -5 2.36 -5 1 C-2 0 -2 0 0 0 Z " fill="#F9DBDB" transform="translate(39,39)"/>
<path d="M0 0 C1.65 0 3.3 0 5 0 C4.67 0.99 4.34 1.98 4 3 C4.33 3.66 4.66 4.32 5 5 C3.35 5 1.7 5 0 5 C0 3.35 0 1.7 0 0 Z " fill="#F9E0E0" transform="translate(29,46)"/>
<path d="M0 0 C0.99 0.33 1.98 0.66 3 1 C3 2.32 3 3.64 3 5 C1.68 5 0.36 5 -1 5 C-0.67 3.35 -0.34 1.7 0 0 Z " fill="#F8D7D7" transform="translate(69,46)"/>
</svg>
