<?xml version="1.0" encoding="UTF-8"?>
<svg version="1.1" xmlns="http://www.w3.org/2000/svg" width="500" height="500">
<path d="M0 0 C165 0 330 0 500 0 C500 165 500 330 500 500 C335 500 170 500 0 500 C0 335 0 170 0 0 Z " fill="#D81414" transform="translate(0,0)"/>
<path d="M0 0 C66.66 0 133.32 0 202 0 C202 28.38 202 56.76 202 86 C135.34 86 68.68 86 0 86 C0 57.62 0 29.24 0 0 Z " fill="#D81818" transform="translate(149,220)"/>
<path d="M0 0 C66.66 0 133.32 0 202 0 C202 28.38 202 56.76 202 86 C135.34 86 68.68 86 0 86 C0 57.62 0 29.24 0 0 Z M6 5 C6 24.14 6 43.28 6 63 C68.7 63 131.4 63 196 63 C196 43.86 196 24.72 196 5 C133.3 5 70.6 5 6 5 Z " fill="#FEFCFC" transform="translate(149,220)"/>
<path d="M0 0 C11.22 0 22.44 0 34 0 C32.35 1.32 30.7 2.64 29 4 C22.99857565 10.27421637 23.12883003 16.55577706 23 25 C24.65 25 26.3 25 28 25 C28 23.68 28 22.36 28 21 C30.64 20.34 33.28 19.68 36 19 C36 20.98 36 22.96 36 25 C40.95 25 45.9 25 51 25 C51 24.34 51 23.68 51 23 C52.58367747 23.14204741 54.16693318 23.28880153 55.75 23.4375 C57.07257813 23.55931641 57.07257813 23.55931641 58.421875 23.68359375 C60.69350452 23.96238465 62.79851823 24.38790577 65 25 C65 23.35 65 21.7 65 20 C65.556875 20.639375 66.11375 21.27875 66.6875 21.9375 C69.22066561 24.19680987 70.68341424 24.63149047 74 25 C74 23.02 74 21.04 74 19 C74.33 19 74.66 19 75 19 C75 20.98 75 22.96 75 25 C76.98 25.495 76.98 25.495 79 26 C78.27554688 26.15855469 77.55109375 26.31710938 76.8046875 26.48046875 C70.56069306 27.98735274 66.55410784 29.44589216 62 34 C61.34 34.66 60.68 35.32 60 36 C56.875 35.625 56.875 35.625 54 35 C54 34.34 54 33.68 54 33 C55.98 33 57.96 33 60 33 C60 32.01 60 31.02 60 30 C56.7 30 53.4 30 50 30 C50 33.96 50 37.92 50 42 C53.3 42 56.6 42 60 42 C60.68359375 44.01822917 61.3671875 46.03645833 62.05078125 48.0546875 C62.96335547 50.33994905 62.96335547 50.33994905 66 52 C67.32 52 68.64 52 70 52 C70 52.66 70 53.32 70 54 C76.45712674 51.86169224 79.90207995 49.74788597 83.02734375 43.609375 C83.34832031 43.07828125 83.66929687 42.5471875 84 42 C84.66 42 85.32 42 86 42 C86.495 41.01 86.495 41.01 87 40 C87 40.66 87 41.32 87 42 C88.65 42 90.3 42 92 42 C92 41.34 92 40.68 92 40 C93.32 40 94.64 40 96 40 C96 40.66 96 41.32 96 42 C97.65 42 99.3 42 101 42 C101 41.34 101 40.68 101 40 C104.41056269 41.13685423 105.19934165 42.15331969 107.4375 44.875 C109.27778615 47.10639842 110.8860263 48.9162724 113.22265625 50.6328125 C113.80917969 51.08398438 114.39570313 51.53515625 115 52 C115 52.66 115 53.32 115 54 C116.98 54.495 116.98 54.495 119 55 C119 55.66 119 56.32 119 57 C120.485 57.495 120.485 57.495 122 58 C81.74 58 41.48 58 0 58 C0 38.86 0 19.72 0 0 Z " fill="#D81414" transform="translate(155,225)"/>
<path d="M0 0 C0.8029248 0.00572021 1.60584961 0.01144043 2.43310547 0.01733398 C12.34575424 0.31501413 18.57446822 4.27976071 25.62109375 11.046875 C27.35969487 12.72592741 27.35969487 12.72592741 30.3125 13.5 C30.3125 17.46 30.3125 21.42 30.3125 25.5 C28.6625 25.17 27.0125 24.84 25.3125 24.5 C24.6525 23.51 23.9925 22.52 23.3125 21.5 C22.9825 22.82 22.6525 24.14 22.3125 25.5 C12.90247722 25.8690205 12.90247722 25.8690205 8.3125 23.5 C8.3125 24.16 8.3125 24.82 8.3125 25.5 C3.3625 25.5 -1.5875 25.5 -6.6875 25.5 C-7.0175 23.85 -7.3475 22.2 -7.6875 20.5 C-9.9975 20.83 -12.3075 21.16 -14.6875 21.5 C-14.6875 22.82 -14.6875 24.14 -14.6875 25.5 C-16.3375 25.5 -17.9875 25.5 -19.6875 25.5 C-20.77146855 11.20767394 -20.77146855 11.20767394 -15.48828125 5.05078125 C-10.40871695 0.67640592 -6.52221858 -0.05341647 0 0 Z " fill="#D91D1D" transform="translate(197.6875,224.5)"/>
<path d="M0 0 C7.425 0.99 7.425 0.99 15 2 C18 10.625 18 10.625 18 14 C16.68 14 15.36 14 14 14 C14 13.34 14 12.68 14 12 C12.68 12 11.36 12 10 12 C10 12.66 10 13.32 10 14 C9.071875 13.938125 8.14375 13.87625 7.1875 13.8125 C4.10870915 13.71642774 4.10870915 13.71642774 2.375 15.125 C0.85294937 17.13205534 0.85294937 17.13205534 -0.75 20 C-3.56130058 23.74840077 -5.48556277 24.79615007 -10 26 C-12.9759761 25.91656142 -15.35299506 25.37230842 -18 24 C-21.16373432 20.36170553 -22 18.86093199 -22 14 C-25.3 14 -28.6 14 -32 14 C-32 10.04 -32 6.08 -32 2 C-28.7 2 -25.4 2 -22 2 C-22 2.99 -22 3.98 -22 5 C-23.98 5 -25.96 5 -28 5 C-28 5.66 -28 6.32 -28 7 C-22.70558305 7.50423019 -20.18586481 6.18923033 -16 3 C-13 5 -13 5 -12.26953125 7.1640625 C-12.11871094 7.97617187 -11.96789062 8.78828125 -11.8125 9.625 C-11.65394531 10.44226563 -11.49539062 11.25953125 -11.33203125 12.1015625 C-11.22246094 12.72804688 -11.11289063 13.35453125 -11 14 C-9.35 14 -7.7 14 -6 14 C-5.81824219 13.32453125 -5.63648438 12.6490625 -5.44921875 11.953125 C-5.19785156 11.06109375 -4.94648438 10.1690625 -4.6875 9.25 C-4.44386719 8.36828125 -4.20023438 7.4865625 -3.94921875 6.578125 C-3 4 -3 4 0 0 Z " fill="#D91F1F" transform="translate(237,253)"/>
<path d="M0 0 C7.425 0.99 7.425 0.99 15 2 C18 10.625 18 10.625 18 14 C16.68 14 15.36 14 14 14 C14 13.34 14 12.68 14 12 C12.68 12 11.36 12 10 12 C10 12.66 10 13.32 10 14 C6.7 14 3.4 14 0 14 C0 9.38 0 4.76 0 0 Z " fill="#FAE5E5" transform="translate(237,253)"/>
<path d="M0 0 C1.98 0 3.96 0 6 0 C6 1.32 6 2.64 6 4 C6.66 4 7.32 4 8 4 C8.33 2.68 8.66 1.36 9 0 C10.65 0 12.3 0 14 0 C14 3.96 14 7.92 14 12 C11.03 12 8.06 12 5 12 C4.67 10.68 4.34 9.36 4 8 C3.67 9.32 3.34 10.64 3 12 C2.01 12 1.02 12 0 12 C0 8.04 0 4.08 0 0 Z " fill="#FBECEC" transform="translate(268,238)"/>
<path d="M0 0 C3.375 0.6875 3.375 0.6875 4.375 1.6875 C4.98294251 7.76692506 3.59842628 10.75162851 0.375 15.6875 C-0.615 15.6875 -1.605 15.6875 -2.625 15.6875 C-5.79809028 10.82870551 -7.44836802 7.68632415 -6.625 1.6875 C-3.625 -0.3125 -3.625 -0.3125 0 0 Z " fill="#F9E0E0" transform="translate(331.625,237.3125)"/>
<path d="M0 0 C3.5625 0.25 3.5625 0.25 6.5625 2.25 C6.85546875 4.6328125 6.85546875 4.6328125 6.75 7.375 C6.72292969 8.28507812 6.69585937 9.19515625 6.66796875 10.1328125 C6.63316406 10.83148438 6.59835937 11.53015625 6.5625 12.25 C4.93786158 12.30395478 3.31271459 12.34277195 1.6875 12.375 C0.78257812 12.39820313 -0.12234375 12.42140625 -1.0546875 12.4453125 C-3.4375 12.25 -3.4375 12.25 -5.4375 10.25 C-5.703125 8.375 -5.703125 8.375 -5.6875 6.25 C-5.69265625 5.54875 -5.6978125 4.8475 -5.703125 4.125 C-5.17541365 0.39997874 -3.50000156 0.25454557 0 0 Z " fill="#FAE3E3" transform="translate(262.4375,254.75)"/>
<path d="M0 0 C1.423125 -0.061875 2.84625 -0.12375 4.3125 -0.1875 C5.51326172 -0.23970703 5.51326172 -0.23970703 6.73828125 -0.29296875 C9 0 9 0 10.76953125 1.32421875 C12.6691714 3.91134772 12.38880875 5.88952999 12 9 C10.76953125 10.67578125 10.76953125 10.67578125 9 12 C6.73828125 12.29296875 6.73828125 12.29296875 4.3125 12.1875 C2.889375 12.125625 1.46625 12.06375 0 12 C0 8.04 0 4.08 0 0 Z " fill="#FBEAEA" transform="translate(191,255)"/>
<path d="M0 0 C2.475 0.495 2.475 0.495 5 1 C5.66 1.99 6.32 2.98 7 4 C7.33 2.68 7.66 1.36 8 0 C9.32 0 10.64 0 12 0 C12 3.96 12 7.92 12 12 C7 11 7 11 5 9 C4.67 9.99 4.34 10.98 4 12 C2.68 12 1.36 12 0 12 C0 8.04 0 4.08 0 0 Z " fill="#FCEEEE" transform="translate(284,255)"/>
<path d="M0 0 C2.475 0.495 2.475 0.495 5 1 C5.66 1.99 6.32 2.98 7 4 C7.33 2.68 7.66 1.36 8 0 C9.32 0 10.64 0 12 0 C12 3.96 12 7.92 12 12 C7 11 7 11 5 9 C4.67 9.99 4.34 10.98 4 12 C2.68 12 1.36 12 0 12 C0 8.04 0 4.08 0 0 Z " fill="#FCEEEE" transform="translate(297,238)"/>
<path d="M0 0 C5 1 5 1 6.8125 3.0625 C7.204375 3.701875 7.59625 4.34125 8 5 C8.33 3.35 8.66 1.7 9 0 C9.99 0 10.98 0 12 0 C12 3.96 12 7.92 12 12 C10.35 11.67 8.7 11.34 7 11 C6.34 10.01 5.68 9.02 5 8 C4.67 9.32 4.34 10.64 4 12 C2.68 12 1.36 12 0 12 C0 8.04 0 4.08 0 0 Z " fill="#FCF2F2" transform="translate(216,238)"/>
<path d="M0 0 C1.134375 0.020625 2.26875 0.04125 3.4375 0.0625 C5.66723706 4.24325699 5.50048558 6.45622916 4.4375 11.0625 C3.4375 12.0625 3.4375 12.0625 -0.125 12.125 C-1.259375 12.104375 -2.39375 12.08375 -3.5625 12.0625 C-4.2225 10.7425 -4.8825 9.4225 -5.5625 8.0625 C-4.9025 7.7325 -4.2425 7.4025 -3.5625 7.0625 C-4.2225 6.4025 -4.8825 5.7425 -5.5625 5.0625 C-4.90400312 0.71642062 -4.57278902 0.08022437 0 0 Z " fill="#F9DEDE" transform="translate(303.5625,254.9375)"/>
<path d="M0 0 C3.63 0 7.26 0 11 0 C11 0.99 11 1.98 11 3 C8.69 3 6.38 3 4 3 C4 3.66 4 4.32 4 5 C5.98 5 7.96 5 10 5 C10 5.66 10 6.32 10 7 C8.02 7 6.04 7 4 7 C4 7.66 4 8.32 4 9 C6.31 9 8.62 9 11 9 C11 9.99 11 10.98 11 12 C7.37 12 3.74 12 0 12 C0 8.04 0 4.08 0 0 Z " fill="#FBECEC" transform="translate(271,255)"/>
<path d="M0 0 C3.63 0 7.26 0 11 0 C11 0.99 11 1.98 11 3 C8.69 3 6.38 3 4 3 C4 3.66 4 4.32 4 5 C5.98 5 7.96 5 10 5 C10 5.66 10 6.32 10 7 C8.02 7 6.04 7 4 7 C4 7.66 4 8.32 4 9 C6.31 9 8.62 9 11 9 C11 9.99 11 10.98 11 12 C7.37 12 3.74 12 0 12 C0 8.04 0 4.08 0 0 Z " fill="#FBECEC" transform="translate(284,238)"/>
<path d="M0 0 C1.65 0 3.3 0 5 0 C6.32 3.96 7.64 7.92 9 12 C5.95724864 11.39144973 2.99354776 10.77610498 0 10 C0 10.66 0 11.32 0 12 C-1.32 12 -2.64 12 -4 12 C-3.45660208 7.43545749 -2.20536179 4.0271824 0 0 Z " fill="#FAE4E4" transform="translate(258,238)"/>
<path d="M0 0 C1.65 0 3.3 0 5 0 C6.32 3.96 7.64 7.92 9 12 C5.95724864 11.39144973 2.99354776 10.77610498 0 10 C0 10.66 0 11.32 0 12 C-1.32 12 -2.64 12 -4 12 C-2 3.42857143 -2 3.42857143 0 0 Z " fill="#FAE5E5" transform="translate(206,238)"/>
<path d="M0 0 C3.3 0 6.6 0 10 0 C10 0.99 10 1.98 10 3 C8.02 3 6.04 3 4 3 C4 3.66 4 4.32 4 5 C5.65 5 7.3 5 9 5 C9 5.66 9 6.32 9 7 C7.35 7 5.7 7 4 7 C4 7.66 4 8.32 4 9 C6.31 9 8.62 9 11 9 C11 9.99 11 10.98 11 12 C7.37 12 3.74 12 0 12 C0 8.04 0 4.08 0 0 Z " fill="#FDF6F6" transform="translate(205,255)"/>
<path d="M0 0 C4.95 0.99 4.95 0.99 10 2 C8.68 5.96 7.36 9.92 6 14 C4.02 14 2.04 14 0 14 C0 9.38 0 4.76 0 0 Z " fill="#DA2020" transform="translate(237,253)"/>
<path d="M0 0 C6.0546875 -0.1953125 6.0546875 -0.1953125 8 0 C10 2 10 2 10.1875 4.5625 C10 7 10 7 9 8 C7.33382885 8.04063832 5.66611905 8.042721 4 8 C4 9.32 4 10.64 4 12 C2.68 12 1.36 12 0 12 C0 8.04 0 4.08 0 0 Z " fill="#FBE8E8" transform="translate(179,238)"/>
<path d="M0 0 C3.3 0 6.6 0 10 0 C10 0.99 10 1.98 10 3 C7.69 3 5.38 3 3 3 C3 3.66 3 4.32 3 5 C4.98 5 6.96 5 9 5 C9 5.66 9 6.32 9 7 C7.02 7 5.04 7 3 7 C3 7.66 3 8.32 3 9 C5.31 9 7.62 9 10 9 C10 9.99 10 10.98 10 12 C6.7 12 3.4 12 0 12 C0 8.04 0 4.08 0 0 Z " fill="#FDF8F8" transform="translate(231,238)"/>
<path d="M0 0 C1.32 0 2.64 0 4 0 C4.66 1.65 5.32 3.3 6 5 C6.66 3.35 7.32 1.7 8 0 C9.32 0 10.64 0 12 0 C11.52309796 1.62566606 11.04340334 3.25051311 10.5625 4.875 C10.29566406 5.77992188 10.02882812 6.68484375 9.75390625 7.6171875 C9 10 9 10 8 12 C6.35 12 4.7 12 3 12 C2.49440092 10.56445975 1.9957251 9.1264798 1.5 7.6875 C1.2215625 6.88699219 0.943125 6.08648437 0.65625 5.26171875 C0 3 0 3 0 0 Z " fill="#FCEDED" transform="translate(223,255)"/>
<path d="M0 0 C-0.99 0.33 -1.98 0.66 -3 1 C-3.66 0.67 -4.32 0.34 -5 0 C-5.33 0.99 -5.66 1.98 -6 3 C-8.475 2.505 -8.475 2.505 -11 2 C-11.66 3.98 -12.32 5.96 -13 8 C-15 5 -15 5 -15 2 C-16.32 2 -17.64 2 -19 2 C-19.33 2.66 -19.66 3.32 -20 4 C-22.0625 4.625 -22.0625 4.625 -24 5 C-20.30990667 0.29194989 -16.58548643 -1.28924723 -10.8046875 -2.70703125 C-6.45532465 -3.16135188 -3.85472496 -1.96372781 0 0 Z " fill="#DC3030" transform="translate(242,253)"/>
<path d="M0 0 C3.96 0 7.92 0 12 0 C12 0.99 12 1.98 12 3 C10.68 3 9.36 3 8 3 C8 5.97 8 8.94 8 12 C6.68 12 5.36 12 4 12 C4 9.03 4 6.06 4 3 C2.68 3 1.36 3 0 3 C0 2.01 0 1.02 0 0 Z " fill="#FCF1F1" transform="translate(310,238)"/>
<path d="M0 0 C1.32 0 2.64 0 4 0 C4 2.97 4 5.94 4 9 C5.98 9 7.96 9 10 9 C10 9.99 10 10.98 10 12 C6.7 12 3.4 12 0 12 C0 8.04 0 4.08 0 0 Z " fill="#FDF3F3" transform="translate(191,238)"/>
<path d="M0 0 C1.32 0 2.64 0 4 0 C4.05395478 1.62463842 4.09277195 3.24978541 4.125 4.875 C4.14820313 5.77992188 4.17140625 6.68484375 4.1953125 7.6171875 C4 10 4 10 2 12 C-1.125 12.125 -1.125 12.125 -4 12 C-4.66 10.68 -5.32 9.36 -6 8 C-3.03 8.495 -3.03 8.495 0 9 C0 6.03 0 3.06 0 0 Z " fill="#FDF3F3" transform="translate(248,238)"/>
<path d="M0 0 C1.65 0 3.3 0 5 0 C5 3.96 5 7.92 5 12 C4.01 12 3.02 12 2 12 C1.67 10.02 1.34 8.04 1 6 C0.34 6 -0.32 6 -1 6 C-0.67 4.02 -0.34 2.04 0 0 Z " fill="#FEFBFB" transform="translate(277,238)"/>
<path d="M0 0 C1.32 0 2.64 0 4 0 C4 3.96 4 7.92 4 12 C2.68 12 1.36 12 0 12 C0 8.04 0 4.08 0 0 Z " fill="#FDF2F2" transform="translate(237,255)"/>
<path d="M0 0 C0.66 0 1.32 0 2 0 C2.33 2.31 2.66 4.62 3 7 C1.68 6.67 0.36 6.34 -1 6 C-1 7.65 -1 9.3 -1 11 C-2.32 10.01 -3.64 9.02 -5 8 C-4.34 7.67 -3.68 7.34 -3 7 C-2.67 6.01 -2.34 5.02 -2 4 C-3.32 3.67 -4.64 3.34 -6 3 C-4.02 2.67 -2.04 2.34 0 2 C0 1.34 0 0.68 0 0 Z " fill="#F7D3D3" transform="translate(330,257)"/>
<path d="M0 0 C1.98 0 3.96 0 6 0 C6 1.98 6 3.96 6 6 C4.35 5.67 2.7 5.34 1 5 C0.67 3.35 0.34 1.7 0 0 Z " fill="#FEF9F9" transform="translate(263,261)"/>
<path d="M0 0 C1.32 0.33 2.64 0.66 4 1 C3.67 2.65 3.34 4.3 3 6 C2.01 6 1.02 6 0 6 C0 4.02 0 2.04 0 0 Z " fill="#DD3535" transform="translate(195,258)"/>
<path d="M0 0 C1.32 0 2.64 0 4 0 C4 0.66 4 1.32 4 2 C3.34 2 2.68 2 2 2 C2 2.99 2 3.98 2 5 C2.66 5.33 3.32 5.66 4 6 C2.68 6 1.36 6 0 6 C0 4.02 0 2.04 0 0 Z " fill="#DB2828" transform="translate(261,258)"/>
</svg>
